<svg xmlns="http://www.w3.org/2000/svg" viewBox="0 0 22 28" version="1.1" width="22" height="28"><g stroke="none" stroke-width="1" fill="none" fill-rule="evenodd"><g transform="translate(-764.000000, -46.000000)" fill="#FFFFFF"><g transform="translate(764.000000, 46.000000)"><path d="M21 2.3L17.4 2.3 17.4 0.9C17.4 0.4 16.9 0 16.4 0 15.9 0 15.4 0.4 15.4 0.9L15.4 2.3 12 2.3 12 0.9C12 0.4 11.5 0 11 0 10.5 0 10 0.4 10 0.9L10 2.3 6.6 2.3 6.6 0.9C6.6 0.4 6.1 0 5.6 0 5.1 0 4.6 0.4 4.6 0.9L4.6 2.3 1 2.3C0.4 2.3 0 2.7 0 3.2L0 27.1C0 27.6 0.4 28 1 28L21 28C21.5 28 22 27.6 22 27.1L22 3.2C22 2.7 21.5 2.3 21 2.3L21 2.3ZM20 26.2L1.9 26.2 1.9 4.1 4.6 4.1 4.6 5.2C4.6 5.7 5.1 6.1 5.6 6.1 6.1 6.1 6.5 5.7 6.5 5.2L6.5 4.1 10 4.1 10 5.2C10 5.7 10.4 6.1 11 6.1 11.5 6.1 11.9 5.7 11.9 5.2L11.9 4.1 15.4 4.1 15.4 5.2C15.4 5.7 15.8 6.1 16.4 6.1 16.9 6.1 17.3 5.7 17.3 5.2L17.3 4.1 20 4.1 20 26.2 20 26.2ZM16.7 10.3L5.3 10.3C4.7 10.3 4.3 10.7 4.3 11.2 4.3 11.7 4.7 12.1 5.3 12.1L16.7 12.1C17.2 12.1 17.7 11.7 17.7 11.2 17.7 10.7 17.2 10.3 16.7 10.3L16.7 10.3ZM16.7 15.4L5.3 15.4C4.7 15.4 4.3 15.8 4.3 16.3 4.3 16.8 4.7 17.3 5.3 17.3L16.7 17.3C17.2 17.3 17.7 16.8 17.7 16.3 17.7 15.8 17.2 15.4 16.7 15.4L16.7 15.4ZM16.7 20.6L5.3 20.6C4.7 20.6 4.3 21 4.3 21.5 4.3 22 4.7 22.4 5.3 22.4L16.7 22.4C17.2 22.4 17.7 22 17.7 21.5 17.7 21 17.2 20.6 16.7 20.6L16.7 20.6Z"/></g></g></g></svg>